<svg width="402" height="198" viewBox="0 0 402 198" fill="none" xmlns="http://www.w3.org/2000/svg">
<rect x="4" y="4" width="394" height="190" rx="16" fill="#FEFEFE"/>
<rect x="4" y="4" width="394" height="190" rx="16" stroke="#019833" stroke-width="8"/>
<path d="M119 156L133.5 152.806M148 156L133.5 152.806M133.5 152.806V60.1935M119 57L133.5 60.1935M133.5 60.1935L148 57" stroke="black" stroke-width="8" stroke-linecap="round"/>
<path d="M101.625 65.3125C99.0417 69.1875 96.9375 73.25 95.3125 77.5L90.5625 91.1875L73.75 136.625C71.7917 141.958 69.5 147.167 66.875 152.25C65.5417 154.75 63.6667 156 61.25 156C58.0417 156 55.7917 154.375 54.5 151.125C49.4583 138.458 43.8542 120.229 37.6875 96.4375L32.75 79.25C30.2917 70.5833 29.0625 64.9167 29.0625 62.25C29.0625 60.375 29.7292 58.8333 31.0625 57.625C32.2708 56.5 33.7292 55.9375 35.4375 55.9375C38.6042 55.9375 40.6458 57.6458 41.5625 61.0625L43.875 71.9375L49.875 93.1875C53.875 108.688 57.7708 122.042 61.5625 133.25L61.9375 132.25L78.6875 86.875L84 71.5625C86.375 65.3958 88.8958 60.7292 91.5625 57.5625C92.9375 55.8958 94.5625 55.0625 96.4375 55.0625C98.1042 55.0625 99.5833 55.7083 100.875 57C102.208 58.25 102.875 59.7708 102.875 61.5625C102.875 62.8125 102.458 64.0625 101.625 65.3125Z" fill="black"/>
<path d="M226.672 154.891C224.109 154.891 222.609 153.531 222.172 150.812C221.609 147.375 221.047 142.531 220.484 136.281L218.891 121.75C218.578 119.594 218.047 117.484 217.297 115.422C216.234 112.609 215.078 111.203 213.828 111.203C212.672 111.203 210.516 112.188 207.359 114.156C204.359 115.969 202.391 117.422 201.453 118.516C201.422 121.453 201.5 124.391 201.688 127.328L203.094 139.844C203.688 144.781 203.984 148.859 203.984 152.078C203.984 153.453 203.547 154.578 202.672 155.453C201.828 156.359 200.734 156.812 199.391 156.812C198.047 156.812 196.938 156.359 196.062 155.453C195.219 154.578 194.797 153.453 194.797 152.078C194.797 148.297 194.406 142.719 193.625 135.344C192.875 127.938 192.5 122.344 192.5 118.562C192.5 115.25 192.031 112.672 191.094 110.828C188.906 111.828 186.688 113.453 184.438 115.703L178.906 121.891C178.406 122.641 177.609 123.625 176.516 124.844C176.516 126.719 176.344 129.484 176 133.141C175.656 136.797 175.484 139.5 175.484 141.25C175.484 142.188 175.625 143.5 175.906 145.188C176.219 146.875 176.375 148.094 176.375 148.844C176.375 150.125 175.891 151.203 174.922 152.078C173.984 152.953 172.875 153.391 171.594 153.391C168.062 153.391 166.297 149.375 166.297 141.344C166.297 139.469 166.469 136.672 166.812 132.953C167.156 129.234 167.328 126.438 167.328 124.562C167.328 122.906 167.172 120.422 166.859 117.109C166.578 113.797 166.438 111.297 166.438 109.609C166.438 102.516 168.031 98.9688 171.219 98.9688C172.438 98.9688 173.547 99.5 174.547 100.562C175.578 101.625 176.094 102.781 176.094 104.031C176.094 104.625 176.016 105.547 175.859 106.797C175.703 108.047 175.625 109 175.625 109.656L175.719 114.578C177.344 111.234 179.734 108.219 182.891 105.531C186.047 102.812 188.734 101.453 190.953 101.453C195.859 101.453 199.234 103.891 201.078 108.766C202.797 106.484 204.844 104.781 207.219 103.656C209.594 102.5 212.312 101.922 215.375 101.922C220.594 101.922 224.156 104.734 226.062 110.359C226.438 111.484 227.078 115.875 227.984 123.531C228.859 128.906 229.984 137.859 231.359 150.391C231.453 151.641 231.031 152.703 230.094 153.578C229.156 154.453 228.016 154.891 226.672 154.891ZM261.688 152.641C258.562 152.641 255.125 152.141 251.375 151.141L251.281 173.547C251.281 174.922 250.844 176.047 249.969 176.922C249.125 177.797 248.031 178.234 246.688 178.234C245.344 178.234 244.234 177.797 243.359 176.922C242.516 176.047 242.094 174.922 242.094 173.547L242.234 154.797V136.094C242.141 129.25 241.906 123.016 241.531 117.391L240.828 107.875C240.828 105.656 241.234 103.781 242.047 102.25C242.984 100.406 244.344 99.4844 246.125 99.4844C247.344 99.4844 248.359 99.9219 249.172 100.797C250.016 101.641 250.438 102.688 250.438 103.938C250.438 104.219 250.391 104.734 250.297 105.484C250.141 106.453 250.031 107.344 249.969 108.156C252.656 106.312 255.25 104.938 257.75 104.031C260.25 103.094 262.641 102.625 264.922 102.625C271.328 102.625 276.016 105.469 278.984 111.156C281.328 115.656 282.5 121.609 282.5 129.016C282.5 135.766 280.688 141.328 277.062 145.703C273.219 150.328 268.094 152.641 261.688 152.641ZM264.922 112C262.047 112 259.453 112.641 257.141 113.922C255.484 114.828 253.391 116.484 250.859 118.891C251.266 125.984 251.469 133.438 251.469 141.25C254.875 142.562 258.281 143.219 261.688 143.219C265.594 143.219 268.578 141.766 270.641 138.859C272.422 136.328 273.312 133.047 273.312 129.016C273.312 123.328 272.609 119.078 271.203 116.266C269.828 113.422 267.734 112 264.922 112ZM331.391 123.625C331.391 125.875 331.406 129.25 331.438 133.75C331.469 138.25 331.484 141.625 331.484 143.875C331.484 144.562 331.531 145.609 331.625 147.016C331.75 148.422 331.812 149.469 331.812 150.156C331.812 151.5 331.359 152.594 330.453 153.438C329.547 154.312 328.438 154.75 327.125 154.75C324.719 154.75 323.188 153.266 322.531 150.297C318.625 152.328 314.125 153.344 309.031 153.344C304.938 153.344 301.547 152.438 298.859 150.625C295.891 148.625 294.125 145.703 293.562 141.859C292.344 133.578 291.734 126.203 291.734 119.734C291.734 115.453 292.203 110.578 293.141 105.109C293.578 102.391 295.062 101.031 297.594 101.031C298.938 101.031 300.062 101.469 300.969 102.344C301.875 103.188 302.328 104.281 302.328 105.625C302.328 107.062 302.094 109.359 301.625 112.516C301.188 115.672 300.969 118.078 300.969 119.734C300.969 124.953 301.141 129.422 301.484 133.141C301.828 136.859 302.344 139.844 303.031 142.094C304.062 142.656 305.078 143.094 306.078 143.406C307.078 143.688 308.062 143.828 309.031 143.828C313.219 143.828 317.641 143.156 322.297 141.812L322.25 132.297L322.156 123.203C322.156 116.453 322.453 110.594 323.047 105.625C323.391 102.75 324.906 101.312 327.594 101.312C328.938 101.312 330.062 101.75 330.969 102.625C331.875 103.5 332.297 104.594 332.234 105.906L331.391 123.625ZM374.469 111.062C373.812 111.062 373.031 111.031 372.125 110.969C371.25 110.906 370.484 110.875 369.828 110.875C369.109 110.875 366.984 111.109 363.453 111.578L364.344 139.281L364.391 141.344L364.438 143.734C364.562 150.578 362.922 154 359.516 154C358.266 154 357.172 153.594 356.234 152.781C355.328 151.969 354.875 150.953 354.875 149.734C354.875 148.547 354.922 146.766 355.016 144.391C355.109 142.016 355.156 140.234 355.156 139.047L354.219 111.672C351.938 111.578 348.469 111.312 343.812 110.875C341.031 110.5 339.641 108.953 339.641 106.234C339.641 104.859 340.062 103.719 340.906 102.812C341.75 101.906 342.828 101.453 344.141 101.453L353.984 102.25C353.984 100.656 353.906 98.5312 353.75 95.875C353.625 93.1875 353.562 91.25 353.562 90.0625C353.562 88.75 354.016 87.6719 354.922 86.8281C355.828 85.9531 356.938 85.5156 358.25 85.5156C361.062 85.5156 362.703 87.8125 363.172 92.4062C363.266 93.5625 363.312 94.9531 363.312 96.5781L363.219 99.2969L363.172 102.203C367.047 101.703 369.266 101.453 369.828 101.453C373.078 101.453 375.203 101.609 376.203 101.922C378.109 102.547 379.062 104.016 379.062 106.328C379.062 107.703 378.625 108.844 377.75 109.75C376.906 110.625 375.812 111.062 374.469 111.062Z" fill="#D9D9D9"/>
</svg>
