<svg width="200" height="200" viewBox="0 0 200 200" fill="none" xmlns="http://www.w3.org/2000/svg">
<rect x="4" y="4" width="192" height="192" rx="16" fill="#FEFEFE"/>
<rect x="4" y="4" width="192" height="192" rx="16" stroke="#019833" stroke-width="8"/>
<path d="M128 157L142.5 153.806M157 157L142.5 153.806M142.5 153.806V61.1935M128 58L142.5 61.1935M142.5 61.1935L157 58" stroke="black" stroke-width="8" stroke-linecap="round"/>
<path d="M110.625 66.3125C108.042 70.1875 105.938 74.25 104.312 78.5L99.5625 92.1875L82.75 137.625C80.7917 142.958 78.5 148.167 75.875 153.25C74.5417 155.75 72.6667 157 70.25 157C67.0417 157 64.7917 155.375 63.5 152.125C58.4583 139.458 52.8542 121.229 46.6875 97.4375L41.75 80.25C39.2917 71.5833 38.0625 65.9167 38.0625 63.25C38.0625 61.375 38.7292 59.8333 40.0625 58.625C41.2708 57.5 42.7292 56.9375 44.4375 56.9375C47.6042 56.9375 49.6458 58.6458 50.5625 62.0625L52.875 72.9375L58.875 94.1875C62.875 109.688 66.7708 123.042 70.5625 134.25L70.9375 133.25L87.6875 87.875L93 72.5625C95.375 66.3958 97.8958 61.7292 100.562 58.5625C101.938 56.8958 103.562 56.0625 105.438 56.0625C107.104 56.0625 108.583 56.7083 109.875 58C111.208 59.25 111.875 60.7708 111.875 62.5625C111.875 63.8125 111.458 65.0625 110.625 66.3125Z" fill="black"/>
</svg>
